<mxfile host="app.diagrams.net" agent="Mozilla/5.0 (Windows NT 10.0; Win64; x64) AppleWebKit/537.36 (KHTML, like Gecko) Chrome/130.0.0.0 Safari/537.36 Edg/130.0.0.0" version="24.9.1">
  <diagram id="xYdNO2pWOcxc1LeID5YG" name="第 2 页">
    <mxGraphModel dx="374" dy="601" grid="1" gridSize="5" guides="1" tooltips="1" connect="1" arrows="1" fold="1" page="1" pageScale="1" pageWidth="850" pageHeight="1100" math="1" shadow="0">
      <root>
        <mxCell id="0" />
        <mxCell id="1" parent="0" />
        <mxCell id="ypvexTDK46IFZ8-2AjkU-25" value="" style="ellipse;shape=cloud;whiteSpace=wrap;html=1;fillColor=#fff2cc;strokeColor=#d6b656;" vertex="1" parent="1">
          <mxGeometry x="170" y="195" width="370" height="180" as="geometry" />
        </mxCell>
        <mxCell id="ypvexTDK46IFZ8-2AjkU-22" value="" style="verticalLabelPosition=bottom;verticalAlign=top;html=1;shape=mxgraph.basic.half_circle;rotation=-135;dashed=1;strokeWidth=1;dashPattern=12 12;fillColor=none;" vertex="1" parent="1">
          <mxGeometry x="293.32" y="230.9" width="206" height="103.83" as="geometry" />
        </mxCell>
        <mxCell id="ypvexTDK46IFZ8-2AjkU-1" value="" style="endArrow=classic;html=1;rounded=0;dashed=1;strokeWidth=1.5;" edge="1" parent="1">
          <mxGeometry width="50" height="50" relative="1" as="geometry">
            <mxPoint x="190" y="320" as="sourcePoint" />
            <mxPoint x="520" y="320" as="targetPoint" />
          </mxGeometry>
        </mxCell>
        <mxCell id="ypvexTDK46IFZ8-2AjkU-2" value="" style="endArrow=classic;html=1;rounded=0;dashed=1;strokeWidth=1.5;" edge="1" parent="1">
          <mxGeometry width="50" height="50" relative="1" as="geometry">
            <mxPoint x="360" y="480" as="sourcePoint" />
            <mxPoint x="360" y="160" as="targetPoint" />
          </mxGeometry>
        </mxCell>
        <mxCell id="ypvexTDK46IFZ8-2AjkU-9" value="" style="endArrow=classic;html=1;rounded=0;strokeWidth=1.5;" edge="1" parent="1">
          <mxGeometry width="50" height="50" relative="1" as="geometry">
            <mxPoint x="360" y="320" as="sourcePoint" />
            <mxPoint x="435" y="395" as="targetPoint" />
          </mxGeometry>
        </mxCell>
        <mxCell id="ypvexTDK46IFZ8-2AjkU-10" value="" style="endArrow=classic;html=1;rounded=0;strokeWidth=1.5;" edge="1" parent="1">
          <mxGeometry width="50" height="50" relative="1" as="geometry">
            <mxPoint x="360" y="320" as="sourcePoint" />
            <mxPoint x="434" y="246" as="targetPoint" />
          </mxGeometry>
        </mxCell>
        <mxCell id="ypvexTDK46IFZ8-2AjkU-8" value="" style="endArrow=classic;html=1;rounded=0;strokeWidth=1.5;" edge="1" parent="1">
          <mxGeometry width="50" height="50" relative="1" as="geometry">
            <mxPoint x="360" y="320" as="sourcePoint" />
            <mxPoint x="286" y="245" as="targetPoint" />
          </mxGeometry>
        </mxCell>
        <mxCell id="ypvexTDK46IFZ8-2AjkU-29" value="&lt;font style=&quot;font-size: 16px;&quot;&gt;$$x_2$$&lt;/font&gt;" style="text;html=1;align=center;verticalAlign=middle;resizable=0;points=[];autosize=1;strokeColor=none;fillColor=none;" vertex="1" parent="1">
          <mxGeometry x="320" y="135" width="80" height="32" as="geometry" />
        </mxCell>
        <mxCell id="ypvexTDK46IFZ8-2AjkU-30" value="&lt;span style=&quot;font-size: 16px;&quot;&gt;$$r_{best}$$&lt;/span&gt;" style="text;html=1;align=center;verticalAlign=middle;resizable=0;points=[];autosize=1;strokeColor=none;fillColor=none;" vertex="1" parent="1">
          <mxGeometry x="360" y="275" width="110" height="32" as="geometry" />
        </mxCell>
        <mxCell id="ypvexTDK46IFZ8-2AjkU-32" value="&lt;span style=&quot;font-size: 16px;&quot;&gt;$$d_{best}$$&lt;/span&gt;" style="text;html=1;align=center;verticalAlign=middle;resizable=0;points=[];autosize=1;strokeColor=none;fillColor=none;" vertex="1" parent="1">
          <mxGeometry x="445" y="175" width="113" height="32" as="geometry" />
        </mxCell>
        <mxCell id="ypvexTDK46IFZ8-2AjkU-35" value="" style="endArrow=none;dashed=1;html=1;rounded=0;dashPattern=1 2;" edge="1" parent="1">
          <mxGeometry width="50" height="50" relative="1" as="geometry">
            <mxPoint x="434" y="246" as="sourcePoint" />
            <mxPoint x="465" y="215" as="targetPoint" />
          </mxGeometry>
        </mxCell>
        <mxCell id="ypvexTDK46IFZ8-2AjkU-37" value="" style="endArrow=none;dashed=1;html=1;rounded=0;dashPattern=1 2;" edge="1" parent="1">
          <mxGeometry width="50" height="50" relative="1" as="geometry">
            <mxPoint x="435" y="395" as="sourcePoint" />
            <mxPoint x="473" y="434" as="targetPoint" />
          </mxGeometry>
        </mxCell>
        <mxCell id="ypvexTDK46IFZ8-2AjkU-38" value="" style="endArrow=none;dashed=1;html=1;rounded=0;dashPattern=1 2;" edge="1" parent="1" source="ypvexTDK46IFZ8-2AjkU-40">
          <mxGeometry width="50" height="50" relative="1" as="geometry">
            <mxPoint x="248" y="206" as="sourcePoint" />
            <mxPoint x="286" y="245" as="targetPoint" />
          </mxGeometry>
        </mxCell>
        <mxCell id="ypvexTDK46IFZ8-2AjkU-41" value="&lt;span style=&quot;font-size: 16px;&quot;&gt;$$d_{tmp1}$$&lt;/span&gt;" style="text;html=1;align=center;verticalAlign=middle;resizable=0;points=[];autosize=1;strokeColor=none;fillColor=none;" vertex="1" parent="1">
          <mxGeometry x="425" y="430" width="120" height="35" as="geometry" />
        </mxCell>
        <mxCell id="ypvexTDK46IFZ8-2AjkU-42" value="" style="endArrow=none;dashed=1;html=1;rounded=0;dashPattern=1 2;" edge="1" parent="1" target="ypvexTDK46IFZ8-2AjkU-40">
          <mxGeometry width="50" height="50" relative="1" as="geometry">
            <mxPoint x="248" y="206" as="sourcePoint" />
            <mxPoint x="286" y="245" as="targetPoint" />
          </mxGeometry>
        </mxCell>
        <mxCell id="ypvexTDK46IFZ8-2AjkU-40" value="&lt;span style=&quot;font-size: 16px;&quot;&gt;$$d_{tmp2}$$&lt;/span&gt;" style="text;html=1;align=center;verticalAlign=middle;resizable=0;points=[];autosize=1;strokeColor=none;fillColor=none;" vertex="1" parent="1">
          <mxGeometry x="173.32" y="172" width="120" height="35" as="geometry" />
        </mxCell>
        <mxCell id="ypvexTDK46IFZ8-2AjkU-44" value="&lt;font style=&quot;font-size: 18px;&quot;&gt;类别y&lt;/font&gt;" style="text;html=1;align=center;verticalAlign=middle;resizable=0;points=[];autosize=1;strokeColor=none;fillColor=none;" vertex="1" parent="1">
          <mxGeometry x="228" y="278" width="65" height="40" as="geometry" />
        </mxCell>
        <mxCell id="ypvexTDK46IFZ8-2AjkU-45" value="&lt;span style=&quot;color: rgb(0, 0, 0); font-family: Helvetica; font-size: 18px; font-style: normal; font-variant-ligatures: normal; font-variant-caps: normal; font-weight: 400; letter-spacing: normal; orphans: 2; text-align: center; text-indent: 0px; text-transform: none; widows: 2; word-spacing: 0px; -webkit-text-stroke-width: 0px; white-space: nowrap; background-color: rgb(251, 251, 251); text-decoration-thickness: initial; text-decoration-style: initial; text-decoration-color: initial; display: inline !important; float: none;&quot;&gt;其他类别&lt;/span&gt;" style="text;whiteSpace=wrap;html=1;" vertex="1" parent="1">
          <mxGeometry x="225.5" y="360" width="70" height="45" as="geometry" />
        </mxCell>
        <mxCell id="ypvexTDK46IFZ8-2AjkU-47" value="&lt;font style=&quot;font-size: 16px;&quot;&gt;$$x_1$$&lt;/font&gt;" style="text;html=1;align=center;verticalAlign=middle;resizable=0;points=[];autosize=1;strokeColor=none;fillColor=none;" vertex="1" parent="1">
          <mxGeometry x="505" y="301.73" width="80" height="35" as="geometry" />
        </mxCell>
      </root>
    </mxGraphModel>
  </diagram>
</mxfile>
